<?xml version="1.0" encoding="utf-8"?>
<!-- Generator: Adobe Illustrator 15.0.0, SVG Export Plug-In . SVG Version: 6.00 Build 0)  -->
<!DOCTYPE svg PUBLIC "-//W3C//DTD SVG 1.1//EN" "http://www.w3.org/Graphics/SVG/1.1/DTD/svg11.dtd">
<svg version="1.1" id="Layer_1" xmlns="http://www.w3.org/2000/svg" xmlns:xlink="http://www.w3.org/1999/xlink" x="0px" y="0px"
	 width="982.235px" height="253px" viewBox="0 0 982.235 253" enable-background="new 0 0 982.235 253" xml:space="preserve">
<g>
	<g>
		<path fill="#4F8B83" d="M227.548,126.496c0,57.065-46.25,103.313-103.309,103.313c-57.058,0-103.308-46.248-103.308-103.313
			c0-57.052,46.25-103.304,103.308-103.304C181.298,23.192,227.548,69.443,227.548,126.496z"/>
	</g>
	<g>
		<path fill="#F6FAFE" d="M70.73,156.251c0-0.734,0.024-1.698,0.067-2.898c0.045-1.2,0.088-2.465,0.133-3.782
			c0.045-1.32,0.09-2.612,0.138-3.884c0.041-1.266,0.074-2.363,0.074-3.269c0-2.318-0.188-4.239-0.551-5.724
			c-0.368-1.509-0.887-2.703-1.569-3.583c-0.676-0.882-1.533-1.503-2.551-1.878c-1.027-0.36-2.174-0.546-3.443-0.546h-5.862v-12.405
			h5.724c2.866,0,4.999-0.865,6.407-2.613c1.403-1.749,2.111-4.606,2.111-8.559c0-0.544-0.009-1.354-0.029-2.416
			c-0.024-1.061-0.061-2.181-0.106-3.348c-0.043-1.151-0.082-2.229-0.104-3.233c-0.022-0.998-0.025-1.675-0.025-2.042
			c0-8.314,2.222-14.585,6.676-18.814c4.446-4.221,11.11-6.337,19.968-6.337h11.306v12.607H95.398c-2.996,0-5.214,0.932-6.644,2.794
			c-1.432,1.859-2.146,4.67-2.146,8.394c0,0.628,0.008,1.47,0.036,2.483c0.02,1.028,0.055,2.082,0.095,3.166
			c0.046,1.096,0.082,2.109,0.107,3.071c0.022,0.949,0.035,1.658,0.035,2.107c0,4.14-0.873,7.825-2.626,11.04
			c-1.751,3.228-4.173,5.831-7.259,7.841c1.41,0.914,2.694,2.042,3.854,3.379c1.153,1.34,2.164,2.859,3.03,4.557
			c0.86,1.7,1.538,3.576,2.012,5.587c0.479,2.023,0.715,4.173,0.715,6.442c0,0.505-0.012,1.38-0.037,2.619
			c-0.024,1.251-0.055,2.517-0.098,3.824c-0.054,1.29-0.081,2.48-0.101,3.542c-0.026,1.064-0.043,1.699-0.043,1.879
			c0,4.771,1.006,8.208,2.998,10.321c2.004,2.107,5.294,3.168,9.885,3.168h9.75v12.332h-7.839c-0.952,0-2.374-0.051-4.266-0.172
			c-1.88-0.104-3.9-0.336-6.058-0.676c-2.163-0.346-4.284-0.818-6.371-1.439c-2.087-0.604-3.823-1.438-5.184-2.484
			c-2.867-2.17-5.001-5.076-6.401-8.688C71.431,165.006,70.73,160.875,70.73,156.251z"/>
		<path fill="#F6FAFE" d="M177.758,156.251c0,4.625-0.71,8.755-2.113,12.362c-1.414,3.611-3.55,6.518-6.411,8.688
			c-1.359,1.047-3.087,1.881-5.176,2.484c-2.096,0.621-4.218,1.094-6.375,1.439c-2.163,0.34-4.181,0.572-6.066,0.676
			c-1.891,0.121-3.301,0.172-4.263,0.172h-7.84V169.74h9.754c4.586,0,7.88-1.061,9.882-3.168c1.992-2.113,2.996-5.55,2.996-10.321
			c0-0.18-0.017-0.814-0.036-1.879c-0.021-1.062-0.054-2.251-0.098-3.542c-0.05-1.308-0.084-2.573-0.106-3.824
			c-0.021-1.239-0.033-2.113-0.033-2.619c0-2.27,0.237-4.419,0.723-6.442c0.474-2.011,1.128-3.887,1.968-5.587
			c0.842-1.697,1.854-3.216,3.034-4.557c1.183-1.337,2.479-2.465,3.882-3.379c-3.087-2.01-5.503-4.613-7.26-7.841
			c-1.747-3.215-2.617-6.899-2.617-11.04c0-0.449,0.009-1.158,0.034-2.107c0.02-0.962,0.056-1.975,0.101-3.071
			c0.047-1.083,0.083-2.137,0.106-3.166c0.021-1.013,0.029-1.855,0.029-2.483c0-3.723-0.716-6.534-2.144-8.394
			c-1.435-1.863-3.649-2.794-6.65-2.794h-13.695V70.919h11.31c8.863,0,15.524,2.117,19.978,6.337
			c4.448,4.229,6.676,10.5,6.676,18.814c0,0.367-0.012,1.043-0.036,2.042c-0.021,1.004-0.057,2.082-0.103,3.233
			c-0.048,1.167-0.077,2.287-0.097,3.348c-0.035,1.061-0.041,1.872-0.041,2.416c0,3.953,0.709,6.811,2.115,8.559
			c1.403,1.748,3.547,2.613,6.409,2.613h5.716v12.405h-5.858c-1.315,0-2.475,0.187-3.472,0.546
			c-1.003,0.375-1.845,0.996-2.523,1.878c-0.687,0.881-1.204,2.074-1.566,3.583c-0.364,1.485-0.544,3.406-0.544,5.724
			c0,0.905,0.024,2.002,0.064,3.269c0.047,1.271,0.092,2.564,0.137,3.884c0.044,1.317,0.089,2.583,0.135,3.782
			C177.727,154.553,177.758,155.517,177.758,156.251z"/>
	</g>
</g>
<g>
	<path fill="#595A5C" d="M264.14,69.607h56.143v10.47h-22.204v91.885h23.287v10.29h-58.489v-10.47h22.205V80.078H264.14V69.607z"/>
	<path fill="#595A5C" d="M342.791,182.072V99.574h12.998v14.623c3.148-5.055,7.179-9.085,12.086-12.095
		c4.908-3.007,9.906-4.513,14.998-4.513c3.633,0,7.026,0.632,10.177,1.896c3.151,1.264,5.878,3.281,8.18,6.048
		c2.302,2.77,4.09,6.318,5.362,10.65c1.272,4.333,1.91,9.63,1.91,15.886v50.004h-12.998v-49.644c0-8.665-1.481-14.741-4.442-18.232
		c-2.962-3.489-6.561-5.235-10.792-5.235c-2.781,0-5.622,0.604-8.521,1.805c-2.902,1.205-5.531,2.919-7.89,5.145
		c-2.358,2.228-4.293,4.905-5.805,8.033c-1.512,3.131-2.265,6.679-2.265,10.651v47.477H342.791z"/>
	<path fill="#595A5C" d="M447.714,77.55l14.081-2.347c0,1.083-0.152,2.047-0.451,2.888c-0.302,0.843-0.513,1.506-0.632,1.986
		l-2.166,19.496h27.078v10.47h-27.078c-1.083,10.775-1.625,20.884-1.625,30.325c0,5.811,0.119,10.715,0.361,14.709
		s0.877,7.142,1.907,9.441c1.027,2.301,2.51,4.087,4.445,5.356c1.935,1.272,4.533,1.907,7.799,1.907
		c5.562,0,11.731-2.527,18.504-7.582l3.991,10.289c-8.304,6.138-16.851,9.207-25.634,9.207c-8.665,0-14.983-2.623-18.955-7.873
		c-3.972-5.246-5.777-13.781-5.416-25.605c0-4.344,0.119-9.892,0.361-16.647c0.24-6.755,0.722-14.597,1.444-23.527h-19.315v-10.47
		h19.857L447.714,77.55z"/>
	<path fill="#595A5C" d="M513.909,99.574h13.359l-0.361,15.886c2.536-5.777,6.552-10.2,12.047-13.269s11.381-4.604,17.663-4.604
		c8.936,0,16.301,3.01,22.1,9.026l-5.957,12.456c-1.331-1.805-2.539-3.309-3.625-4.513c-1.089-1.202-2.265-2.226-3.534-3.069
		c-1.27-0.841-2.66-1.503-4.169-1.986c-1.512-0.479-3.354-0.722-5.528-0.722c-3.989,0-7.734,0.934-11.238,2.798
		c-3.503,1.867-6.555,4.333-9.15,7.401c-2.598,3.069-4.683,6.589-6.253,10.561c-1.571,3.971-2.355,8.124-2.355,12.456v40.256
		h-12.998V99.574z"/>
	<path fill="#595A5C" d="M621.15,97.769c5.055,0,9.839,0.993,14.352,2.979c4.513,1.986,8.453,4.846,11.824,8.575
		c3.368,3.732,6.047,8.276,8.033,13.629c1.985,5.356,2.979,11.345,2.979,17.962c0,6.742-0.965,12.758-2.889,18.052
		c-1.926,5.297-4.575,9.838-7.942,13.629c-3.371,3.791-7.343,6.68-11.915,8.665c-4.575,1.986-9.449,2.979-14.622,2.979
		c-5.297,0-10.262-1.083-14.893-3.249c-4.635-2.167-8.696-5.146-12.186-8.937c-3.492-3.791-6.259-8.332-8.304-13.629
		c-2.048-5.294-3.069-11.012-3.069-17.149s1.053-11.915,3.159-17.33c2.104-5.416,4.934-10.019,8.484-13.81
		c3.549-3.791,7.673-6.798,12.366-9.026C611.222,98.883,616.096,97.769,621.15,97.769z M645.34,141.274
		c0-5.173-0.693-9.776-2.075-13.81c-1.386-4.031-3.222-7.43-5.506-10.199c-2.288-2.767-4.905-4.875-7.854-6.318
		c-2.95-1.444-6.047-2.167-9.297-2.167c-3.249,0-6.349,0.722-9.297,2.167c-2.95,1.444-5.536,3.551-7.762,6.318
		c-2.229,2.77-4.003,6.109-5.326,10.019c-1.325,3.913-1.985,8.335-1.985,13.269c0,4.815,0.66,9.207,1.985,13.178
		c1.323,3.971,3.098,7.401,5.326,10.289c2.226,2.889,4.843,5.117,7.853,6.68c3.007,1.565,6.197,2.348,9.567,2.348
		c3.368,0,6.527-0.691,9.478-2.076c2.947-1.383,5.534-3.431,7.763-6.139c2.226-2.708,3.972-6.047,5.234-10.019
		C644.708,150.842,645.34,146.329,645.34,141.274z"/>
	<path fill="#595A5C" d="M681.307,69.607h26.176c9.627,0,17.118,1.326,22.475,3.971c5.354,2.648,9.898,6.439,13.63,11.373
		c3.729,4.936,6.499,10.893,8.304,17.872c1.806,6.981,2.708,14.865,2.708,23.648c0,8.665-1.083,16.427-3.249,23.287
		c-2.167,6.86-5.146,12.727-8.937,17.601c-3.791,4.875-8.695,8.575-14.712,11.103c-6.02,2.527-13.48,3.791-22.385,3.791h-24.01
		V69.607z M693.222,80.078v92.247h11.469c12.78,0,22.128-3.887,28.04-11.667c5.912-7.776,8.87-18.96,8.87-33.551
		c-0.121-14.713-2.84-26.227-8.154-34.547c-5.313-8.321-14.244-12.481-26.787-12.481H693.222z"/>
	<path fill="#595A5C" d="M809.574,97.588c4.333,0,8.544,0.784,12.637,2.347c4.09,1.565,7.672,3.943,10.741,7.13
		c3.068,3.19,5.534,7.252,7.401,12.185c1.864,4.937,2.798,10.772,2.798,17.511c0,0.965-0.031,1.958-0.09,2.979
		c-0.062,1.024-0.152,2.017-0.271,2.979h-58.669c0.239,5.776,1.232,10.623,2.979,14.532c1.743,3.912,3.94,7.072,6.589,9.478
		c2.646,2.408,5.597,4.123,8.846,5.145c3.249,1.023,6.499,1.534,9.748,1.534c8.544,0,15.644-3.069,21.302-9.206l7.221,7.039
		c-6.981,8.426-16.608,12.637-28.884,12.637c-6.019,0-11.524-0.934-16.518-2.797c-4.995-1.865-9.237-4.604-12.727-8.215
		c-3.492-3.609-6.2-8.092-8.123-13.448c-1.927-5.354-2.889-11.463-2.889-18.323c0-6.978,0.993-13.178,2.979-18.594
		s4.693-9.957,8.123-13.629c3.431-3.669,7.43-6.468,12.005-8.394C799.344,98.553,804.277,97.588,809.574,97.588z M784.662,132.248
		h45.312c0-0.474,0.028-0.917,0.09-1.334c0.06-0.415,0.091-0.919,0.091-1.512c0-2.965-0.573-5.782-1.715-8.451
		c-1.146-2.668-2.68-4.981-4.604-6.939c-1.927-1.958-4.184-3.529-6.77-4.716c-2.59-1.185-5.388-1.78-8.395-1.78
		c-5.658,0-10.772,1.989-15.345,5.96C788.752,117.451,785.864,123.708,784.662,132.248z"/>
	<path fill="#595A5C" d="M857.106,104.087l-1.806-4.513h15.345c0,0.843-0.091,1.597-0.271,2.257
		c-0.181,0.663-0.271,1.235-0.271,1.715c0,0.243,0.06,0.423,0.181,0.542l24.01,60.294l13.358-30.688
		c2.889-6.617,5.235-12.755,7.04-18.413c1.806-5.655,3.188-10.891,4.152-15.706h11.733c-2.408,10.109-6.561,22.145-12.456,36.104
		l-20.037,46.935h-10.109L857.106,104.087z"/>
</g>
</svg>
