<?xml version="1.0" encoding="utf-8"?>
<!-- Generator: Adobe Illustrator 15.0.0, SVG Export Plug-In . SVG Version: 6.00 Build 0)  -->
<!DOCTYPE svg PUBLIC "-//W3C//DTD SVG 1.1//EN" "http://www.w3.org/Graphics/SVG/1.1/DTD/svg11.dtd">
<svg version="1.1" id="Layer_1" xmlns="http://www.w3.org/2000/svg" xmlns:xlink="http://www.w3.org/1999/xlink" x="0px" y="0px"
	 width="226.771px" height="226.771px" viewBox="0 0 226.771 226.771" enable-background="new 0 0 226.771 226.771"
	 xml:space="preserve">
<rect x="-55.614" y="-25.114" fill="#51345F" width="353" height="280"/>
<path fill="#FFFFFF" d="M211.959,113.645c0,54.428-44.121,98.545-98.547,98.545c-54.426,0-98.547-44.117-98.547-98.545
	c0-54.424,44.121-98.545,98.547-98.545C167.838,15.1,211.959,59.221,211.959,113.645z"/>
<g>
	<g>
		<path fill="#51345F" d="M38.016,133.352c1.122,0.825,2.38,1.302,3.77,1.424c1.392,0.13,2.958,0.196,4.692,0.196h1.951v-3.147
			h-2.749c-2.409,0-4.143-0.466-5.203-1.397c-1.062-0.932-1.591-2.622-1.591-5.056l0.163-4.516c0-4.556-1.536-7.337-4.609-8.339
			c3.18-1.335,4.771-4.017,4.771-8.025l-0.107-3.796c0-3.834,1.662-5.751,4.986-5.751h3.457v-3.146h-2.479
			c-6.58,0-9.87,3.146-9.87,9.438l0.109,3.903c0,2.059-0.424,3.542-1.273,4.448c-0.853,0.905-2.109,1.354-3.771,1.354h-1.03v3.15
			h1.083c1.554,0,2.759,0.414,3.608,1.239c0.848,0.824,1.273,2.43,1.273,4.804l-0.218,5.396
			C34.979,129.158,35.992,131.766,38.016,133.352z"/>
	</g>
	<g>
		<path fill="#51345F" d="M190.461,96.028c-0.741-1.264-1.69-2.241-2.848-2.927c-1.157-0.687-2.422-1.077-3.794-1.168
			c-1.376-0.089-2.678-0.135-3.905-0.135h-1.681v3.146h4.021c1.819,0,3.181,0.441,4.073,1.332c0.894,0.884,1.341,2.354,1.341,4.419
			l-0.161,3.796c0,4.009,1.589,6.69,4.769,8.025c-3.071,1.039-4.607,3.816-4.607,8.339l0.163,4.516c0,2.651-0.732,4.501-2.201,5.54
			c-0.177,0.141-0.366,0.267-0.56,0.377c-0.196,0.107-0.448,0.204-0.753,0.292c-0.304,0.089-0.699,0.155-1.178,0.192
			c-0.484,0.037-1.119,0.052-1.906,0.052h-3.367v3.147h4.866c3.11,0,5.387-0.776,6.833-2.322c1.445-1.546,2.171-3.92,2.171-7.119
			l-0.163-5.396c0-2.374,0.414-3.979,1.248-4.804c0.832-0.825,2.024-1.239,3.578-1.239h1.139v-3.15h-1.083
			c-1.628,0-2.874-0.448-3.743-1.354c-0.865-0.906-1.304-2.39-1.304-4.448l0.165-3.903C191.574,99.031,191.2,97.296,190.461,96.028z
			"/>
	</g>
	<path fill="#51345F" d="M52.911,103.218h10.213v1.905h-4.04v16.714h4.236v1.872h-10.64v-1.904h4.04v-16.682h-3.81V103.218z"/>
	<path fill="#51345F" d="M67.218,123.677v-15.008h2.364v2.66c0.573-0.92,1.306-1.653,2.199-2.201c0.893-0.546,1.802-0.82,2.728-0.82
		c0.661,0,1.278,0.115,1.852,0.345c0.573,0.23,1.069,0.597,1.487,1.1c0.419,0.504,0.745,1.15,0.976,1.938
		c0.231,0.788,0.348,1.751,0.348,2.89v9.097h-2.365v-9.032c0-1.574-0.27-2.681-0.808-3.315c-0.539-0.636-1.193-0.952-1.964-0.952
		c-0.505,0-1.022,0.109-1.549,0.328c-0.528,0.22-1.006,0.53-1.436,0.937c-0.428,0.404-0.78,0.892-1.055,1.46
		c-0.275,0.57-0.413,1.216-0.413,1.938v8.638H67.218z"/>
	<path fill="#51345F" d="M86.305,104.662l2.561-0.427c0,0.197-0.027,0.373-0.083,0.525c-0.054,0.153-0.092,0.273-0.115,0.362
		l-0.394,3.546h4.926v1.905h-4.926c-0.196,1.96-0.295,3.799-0.295,5.517c0,1.057,0.021,1.948,0.065,2.675s0.16,1.3,0.347,1.717
		c0.188,0.419,0.457,0.744,0.809,0.976c0.352,0.23,0.824,0.347,1.418,0.347c1.013,0,2.134-0.46,3.366-1.379l0.726,1.872
		c-1.51,1.116-3.065,1.674-4.663,1.674c-1.576,0-2.726-0.478-3.449-1.432c-0.722-0.955-1.05-2.508-0.985-4.658
		c0-0.79,0.021-1.8,0.066-3.028c0.043-1.229,0.131-2.656,0.262-4.279H82.43v-1.905h3.612L86.305,104.662z"/>
	<path fill="#51345F" d="M98.347,108.669h2.43l-0.066,2.89c0.462-1.051,1.192-1.855,2.192-2.413c1-0.559,2.07-0.838,3.213-0.838
		c1.625,0,2.965,0.548,4.02,1.643l-1.084,2.266c-0.242-0.329-0.462-0.602-0.659-0.821c-0.199-0.218-0.412-0.404-0.643-0.558
		s-0.483-0.274-0.758-0.361c-0.275-0.088-0.61-0.132-1.005-0.132c-0.726,0-1.407,0.17-2.044,0.509
		c-0.637,0.34-1.192,0.789-1.665,1.347c-0.473,0.559-0.852,1.198-1.138,1.921s-0.429,1.478-0.429,2.266v7.323h-2.364V108.669z"/>
	<path fill="#51345F" d="M117.855,108.341c0.92,0,1.79,0.181,2.61,0.542c0.821,0.36,1.538,0.881,2.151,1.56
		c0.613,0.679,1.1,1.505,1.461,2.479c0.361,0.974,0.542,2.062,0.542,3.267c0,1.227-0.175,2.321-0.525,3.284
		c-0.35,0.964-0.832,1.79-1.445,2.479c-0.613,0.689-1.335,1.215-2.167,1.576c-0.832,0.362-1.719,0.542-2.66,0.542
		c-0.964,0-1.867-0.197-2.709-0.591c-0.843-0.395-1.582-0.937-2.217-1.626s-1.138-1.517-1.51-2.479
		c-0.372-0.964-0.559-2.004-0.559-3.12s0.192-2.167,0.575-3.153c0.382-0.984,0.897-1.821,1.543-2.512
		c0.645-0.689,1.396-1.236,2.249-1.642C116.049,108.543,116.936,108.341,117.855,108.341z M122.255,116.255
		c0-0.94-0.125-1.778-0.377-2.513c-0.251-0.733-0.585-1.352-1.001-1.855c-0.416-0.503-0.892-0.886-1.429-1.148
		c-0.536-0.263-1.1-0.395-1.691-0.395c-0.591,0-1.155,0.132-1.69,0.395c-0.538,0.263-1.008,0.646-1.413,1.148
		c-0.406,0.504-0.729,1.112-0.969,1.822c-0.241,0.712-0.361,1.518-0.361,2.414c0,0.876,0.12,1.676,0.361,2.396
		c0.241,0.723,0.563,1.348,0.969,1.873c0.404,0.526,0.881,0.931,1.429,1.215c0.547,0.284,1.127,0.428,1.74,0.428
		s1.187-0.126,1.725-0.378c0.535-0.253,1.006-0.624,1.412-1.117c0.405-0.493,0.722-1.1,0.952-1.822
		C122.14,117.995,122.255,117.175,122.255,116.255z"/>
	<path fill="#51345F" d="M128.798,103.218h4.761c1.752,0,3.115,0.241,4.089,0.722c0.974,0.482,1.801,1.172,2.479,2.069
		c0.679,0.897,1.182,1.982,1.511,3.251c0.328,1.271,0.492,2.704,0.492,4.303c0,1.576-0.197,2.987-0.591,4.236
		c-0.395,1.247-0.936,2.314-1.625,3.201s-1.582,1.561-2.676,2.02c-1.095,0.46-2.452,0.689-4.072,0.689h-4.368V103.218z
		 M130.966,105.123v16.78h2.086c2.324,0,4.025-0.707,5.101-2.122s1.613-3.449,1.613-6.104c-0.022-2.677-0.517-4.771-1.483-6.285
		c-0.966-1.513-2.591-2.27-4.873-2.27H130.966z"/>
	<path fill="#51345F" d="M152.132,108.308c0.788,0,1.554,0.143,2.298,0.428c0.744,0.284,1.396,0.716,1.955,1.296
		c0.558,0.581,1.006,1.319,1.346,2.217c0.339,0.898,0.509,1.959,0.509,3.186c0,0.175-0.005,0.356-0.017,0.541
		c-0.011,0.188-0.027,0.368-0.049,0.543h-10.672c0.043,1.051,0.224,1.933,0.542,2.644s0.717,1.286,1.199,1.724
		c0.481,0.438,1.018,0.75,1.609,0.937c0.591,0.186,1.182,0.278,1.773,0.278c1.555,0,2.845-0.558,3.875-1.674l1.313,1.279
		c-1.27,1.534-3.021,2.3-5.254,2.3c-1.095,0-2.096-0.17-3.004-0.509c-0.909-0.34-1.68-0.838-2.315-1.495
		c-0.636-0.656-1.128-1.471-1.478-2.446c-0.35-0.974-0.525-2.085-0.525-3.333c0-1.27,0.181-2.396,0.542-3.383
		c0.361-0.984,0.854-1.811,1.478-2.479c0.625-0.668,1.353-1.177,2.185-1.526C150.271,108.483,151.168,108.308,152.132,108.308z
		 M147.6,114.613h8.243c0-0.087,0.005-0.167,0.016-0.243c0.01-0.075,0.017-0.168,0.017-0.274c0-0.54-0.104-1.054-0.312-1.539
		s-0.487-0.904-0.837-1.262c-0.35-0.355-0.761-0.642-1.231-0.857c-0.471-0.216-0.98-0.323-1.526-0.323
		c-1.029,0-1.96,0.362-2.792,1.084C148.344,111.921,147.818,113.06,147.6,114.613z"/>
	<path fill="#51345F" d="M160.778,109.489l-0.328-0.82h2.791c0,0.153-0.017,0.29-0.049,0.41c-0.033,0.121-0.049,0.226-0.049,0.312
		c0,0.045,0.01,0.077,0.031,0.099l4.369,10.969l2.429-5.582c0.526-1.204,0.952-2.32,1.281-3.35c0.328-1.029,0.58-1.981,0.756-2.857
		h2.134c-0.438,1.839-1.193,4.028-2.266,6.568l-3.645,8.537h-1.84L160.778,109.489z"/>
</g>
</svg>
